# xmcd
#
# Track frame offsets: 
#        150
#        12968
#        25248
#        37244
#        50411
#        60767
#        75296
#        85394
#        99501
#        116012
#        135732
#        145414
#
# Disc length: 2164 seconds
#
# Revision: 0
# Processed by: cddbd v1.5.2PL0 Copyright (c) Steve Scherf et al.
# Submitted via: ExactAudioCopyFreeDBPlugin 1.0
#
DISCID=9708720c
DTITLE=Sandra Phillips - Too Many People in One Bed
DYEAR=1970
DGENRE=Soul
TTITLE0=Rescue Song
TTITLE1=I've Been Down So Long
TTITLE2=My Man and Me
TTITLE3=To the Other Woman (I'm the Other Woman)
TTITLE4=Now that I'm Gone (When You are Leaving)
TTITLE5=Someday (We'll Be Together)
TTITLE6=After All I am Your Wife
TTITLE7=Ghost of Myself
TTITLE8=If You Get Him (He was Never Mine)
TTITLE9=She Didn't Know (She Kept on Talking)
TTITLE10=Please Don't Send Him Back To Me
TTITLE11=Some Mother's Son
EXTD=
EXTT0=
EXTT1=
EXTT2=
EXTT3=
EXTT4=
EXTT5=
EXTT6=
EXTT7=
EXTT8=
EXTT9=
EXTT10=
EXTT11=
PLAYORDER=
